<?xml version="1.0" standalone="no"?>
<!DOCTYPE svg PUBLIC "-//W3C//DTD SVG 20010904//EN"
 "http://www.w3.org/TR/2001/REC-SVG-20010904/DTD/svg10.dtd">
<svg version="1.0" xmlns="http://www.w3.org/2000/svg"
 width="384.000000pt" height="384.000000pt" viewBox="0 0 384.000000 384.000000"
 preserveAspectRatio="xMidYMid meet">
<metadata>
Created by potrace 1.11, written by Peter Selinger 2001-2013
</metadata>
<g transform="translate(0.000000,384.000000) scale(0.100000,-0.100000)"
fill="#000000" stroke="none">
<path d="M1837 3564 c-1 -1 -36 -5 -76 -8 -535 -49 -1043 -396 -1294 -882 -68
-132 -134 -326 -152 -446 -4 -24 -8 -45 -10 -48 -6 -10 -19 -180 -19 -250 0
-74 12 -259 18 -269 2 -3 7 -23 10 -43 17 -109 58 -238 114 -363 130 -288 336
-532 595 -705 93 -61 271 -148 380 -184 283 -94 662 -123 982 -76 33 5 83 12
110 16 89 11 270 61 354 97 113 49 204 112 293 204 213 217 279 343 213 408
-29 30 -54 31 -103 6 -51 -27 -88 -62 -171 -162 -39 -48 -86 -94 -104 -102
-50 -24 -178 -72 -274 -104 -117 -38 -219 -39 -280 -4 -63 36 -60 42 45 72 37
11 107 21 155 24 68 3 99 10 130 27 105 58 116 174 21 214 -32 13 -156 12
-234 -2 -110 -20 -265 -13 -445 21 -81 15 -221 12 -289 -7 -97 -27 -139 -51
-218 -125 -85 -80 -141 -106 -225 -106 -220 2 -552 350 -684 717 -107 298 -97
651 28 946 176 417 540 710 990 796 118 23 338 23 463 0 275 -49 551 -198 727
-392 194 -214 334 -338 375 -332 20 3 23 8 20 38 -4 40 -80 237 -125 325 -125
242 -324 440 -563 558 -66 33 -174 72 -224 82 -12 2 -37 9 -54 14 -36 12 -127
27 -211 37 -55 6 -263 13 -268 8z"/>
<path d="M2066 2561 c-19 -9 -83 -61 -142 -116 -60 -55 -131 -120 -158 -145
-28 -25 -60 -54 -72 -65 -11 -11 -56 -51 -99 -90 -43 -38 -83 -75 -89 -80 -6
-6 -101 -91 -211 -190 -110 -99 -209 -189 -221 -200 -11 -11 -75 -69 -142
-129 -177 -159 -152 -150 63 22 6 4 174 136 375 292 201 157 372 290 380 297
148 122 302 233 324 233 26 0 65 -31 191 -150 60 -57 112 -105 325 -300 63
-58 128 -118 145 -134 16 -15 70 -65 120 -110 85 -77 191 -174 245 -225 14
-13 40 -35 58 -49 l33 -25 240 -1 c164 -1 239 2 239 10 0 6 -73 80 -162 165
-204 194 -348 331 -463 441 -49 47 -106 100 -125 118 -19 18 -109 103 -200
190 -244 233 -228 223 -372 235 -35 3 -90 9 -123 14 -82 12 -120 10 -159 -8z"/>
<path d="M1910 2055 c-17 -21 -15 -97 4 -110 18 -13 104 -11 118 3 17 17 17
75 2 100 -12 18 -24 22 -63 22 -31 0 -53 -5 -61 -15z"/>
<path d="M2109 2054 c-13 -14 -15 -30 -10 -64 5 -36 10 -45 31 -50 36 -9 93
-1 106 16 12 14 11 90 0 101 -3 4 -30 8 -59 11 -42 3 -55 0 -68 -14z"/>
<path d="M1913 1893 c-8 -3 -13 -25 -13 -58 0 -43 4 -56 19 -64 18 -10 106 -9
116 1 10 10 13 94 4 110 -8 14 -22 18 -62 17 -29 0 -58 -3 -64 -6z"/>
<path d="M2106 1884 c-3 -9 -6 -35 -6 -59 0 -33 5 -47 19 -54 19 -10 107 -9
117 2 10 9 11 92 2 110 -12 24 -123 25 -132 1z"/>
</g>
</svg>
